<svg width="300" height="300" viewBox="0 0 300 300" fill="none" xmlns="http://www.w3.org/2000/svg">
<path d="M241.965 130.378C231.591 94.4837 210.697 74.1761 173.783 62.7659C166.303 62.5282 163.057 59.3705 167.628 54.2553H172.362C203.728 63.5261 231.223 77.8725 248.594 125.177V130.378C247.147 132.993 243.357 133.736 241.965 130.378Z" fill="black"/>
<path d="M247.174 139.835H270.375C275.924 141.974 277.13 148.81 270.375 150.236H247.174C243.869 149.118 243.072 142.449 247.174 139.835Z" fill="black"/>
<path d="M251.909 166.312C250.461 161.558 245.122 160.079 241.965 166.312C241.083 172.228 240.07 175.378 236.757 181.915C236.065 188.999 243.44 188.79 245.28 185.225C249.004 178.005 250.284 173.773 251.909 166.312Z" fill="black"/>
<path d="M202.666 235.343C205.561 233.917 205.419 226.349 197.457 228.251C136.898 263.67 70.0648 224.792 58.725 165.839C58.2425 160.61 48.2811 158.703 49.7287 166.785C72.8702 247.806 148.38 267.434 202.666 235.343Z" fill="black"/>
<path d="M28.8952 140.307H47.8348L51.6227 121.868C55.0005 116.638 57.4734 118.064 61.0925 121.868C51.9241 158.238 70.8765 150.466 28.8952 151.655C24.0698 148.802 23.346 143.635 28.8952 140.307Z" fill="black"/>
<path d="M241.965 130.378C231.591 94.4837 210.697 74.1761 173.783 62.7659C166.303 62.5282 163.057 59.3705 167.628 54.2553H172.362C203.728 63.5261 231.223 77.8725 248.594 125.177V130.378C247.147 132.993 243.357 133.736 241.965 130.378Z" stroke="black"/>
<path d="M247.174 139.835H270.375C275.924 141.974 277.13 148.81 270.375 150.236H247.174C243.869 149.118 243.072 142.449 247.174 139.835Z" stroke="black"/>
<path d="M251.909 166.312C250.461 161.558 245.122 160.079 241.965 166.312C241.083 172.228 240.07 175.378 236.757 181.915C236.065 188.999 243.44 188.79 245.28 185.225C249.004 178.005 250.284 173.773 251.909 166.312Z" stroke="black"/>
<path d="M202.666 235.343C205.561 233.917 205.419 226.349 197.457 228.251C136.898 263.67 70.0648 224.792 58.725 165.839C58.2425 160.61 48.2811 158.703 49.7287 166.785C72.8702 247.806 148.38 267.434 202.666 235.343Z" stroke="black"/>
<path d="M28.8952 140.307H47.8348L51.6227 121.868C55.0005 116.638 57.4734 118.064 61.0925 121.868C51.9241 158.238 70.8765 150.466 28.8952 151.655C24.0698 148.802 23.346 143.635 28.8952 140.307Z" stroke="black"/>
<path d="M216.132 150.709C216.132 187.11 186.579 216.631 150.108 216.631C113.638 216.631 84.0851 187.11 84.0851 150.709C84.0851 114.308 113.638 84.7872 150.108 84.7872C186.579 84.7872 216.132 114.308 216.132 150.709Z" stroke="black" stroke-width="10"/>
<ellipse cx="149.398" cy="55.9102" rx="5.91861" ry="5.91017" fill="black"/>
<ellipse cx="149.398" cy="55.9102" rx="5.91861" ry="5.91017" fill="black"/>
<ellipse cx="100.629" cy="69.1489" rx="5.91861" ry="5.91017" fill="black"/>
<ellipse cx="100.629" cy="69.1489" rx="5.91861" ry="5.91017" fill="black"/>
<ellipse cx="66.7744" cy="87.8251" rx="14.2047" ry="14.1844" fill="black"/>
<ellipse cx="66.7744" cy="87.8251" rx="14.2047" ry="14.1844" fill="black"/>
<ellipse cx="230.602" cy="217.849" rx="14.2047" ry="14.1844" fill="black"/>
<ellipse cx="230.602" cy="217.849" rx="14.2047" ry="14.1844" fill="black"/>
</svg>
