<svg width="702" height="562" viewBox="0 0 702 562" fill="none" xmlns="http://www.w3.org/2000/svg">
<path d="M608.503 225.381C579.454 124.732 520.953 67.79 417.592 35.7957C396.65 35.1292 387.56 26.275 400.357 11.9319H413.615C501.438 37.9272 578.423 78.1546 627.064 210.797V225.381C623.01 232.713 612.399 234.795 608.503 225.381Z" fill="black"/>
<path d="M623.086 251.896H688.049C703.587 257.895 706.965 277.064 688.049 281.063H623.086C613.833 277.926 611.602 259.228 623.086 251.896Z" fill="black"/>
<path d="M636.344 326.139C632.291 312.808 617.341 308.661 608.503 326.139C606.032 342.727 603.196 351.56 593.919 369.89C591.982 389.754 612.633 389.168 617.783 379.17C628.212 358.926 631.794 347.06 636.344 326.139Z" fill="black"/>
<path d="M498.464 519.702C506.571 515.702 506.174 494.483 483.881 499.815C314.315 599.13 127.181 490.117 95.4301 324.814C94.079 310.149 66.1871 304.802 70.2404 327.465C135.037 554.649 346.463 609.685 498.464 519.702Z" fill="black"/>
<path d="M11.9066 253.222H64.9374L75.5435 201.517C85.0014 186.853 91.9255 190.852 102.059 201.517C76.3876 303.498 129.454 281.708 11.9066 285.04C-1.60454 277.042 -3.63125 262.554 11.9066 253.222Z" fill="black"/>
<path d="M608.503 225.381C579.454 124.732 520.953 67.79 417.592 35.7957C396.65 35.1292 387.56 26.275 400.357 11.9319H413.615C501.438 37.9272 578.423 78.1546 627.064 210.797V225.381C623.01 232.713 612.399 234.795 608.503 225.381Z" stroke="black"/>
<path d="M623.086 251.896H688.049C703.587 257.895 706.965 277.064 688.049 281.063H623.086C613.833 277.926 611.602 259.228 623.086 251.896Z" stroke="black"/>
<path d="M636.344 326.139C632.291 312.808 617.341 308.661 608.503 326.139C606.032 342.727 603.196 351.56 593.919 369.89C591.982 389.754 612.633 389.168 617.783 379.17C628.212 358.926 631.794 347.06 636.344 326.139Z" stroke="black"/>
<path d="M498.464 519.702C506.571 515.702 506.174 494.483 483.881 499.815C314.315 599.13 127.181 490.117 95.4301 324.814C94.079 310.149 66.1871 304.802 70.2404 327.465C135.037 554.649 346.463 609.685 498.464 519.702Z" stroke="black"/>
<path d="M11.9066 253.222H64.9374L75.5435 201.517C85.0014 186.853 91.9255 190.852 102.059 201.517C76.3876 303.498 129.454 281.708 11.9066 285.04C-1.60454 277.042 -3.63125 262.554 11.9066 253.222Z" stroke="black"/>
<circle cx="351.304" cy="282.389" r="186.365" stroke="black" stroke-width="25"/>
<ellipse cx="349.315" cy="16.5721" rx="16.5721" ry="16.5721" fill="black"/>
<ellipse cx="349.315" cy="16.5721" rx="16.5721" ry="16.5721" fill="black"/>
<ellipse cx="212.761" cy="53.6937" rx="16.5721" ry="16.5721" fill="black"/>
<ellipse cx="212.761" cy="53.6937" rx="16.5721" ry="16.5721" fill="black"/>
<circle cx="117.968" cy="106.062" r="39.7731" fill="black"/>
<circle cx="117.968" cy="106.062" r="39.7731" fill="black"/>
<circle cx="576.684" cy="470.648" r="39.7731" fill="black"/>
<circle cx="576.684" cy="470.648" r="39.7731" fill="black"/>
</svg>
