<svg width="56" height="56" viewBox="0 0 56 56" fill="none" xmlns="http://www.w3.org/2000/svg">
<path d="M45.1667 24.3375C43.2301 17.6372 39.33 13.8464 32.4393 11.7165C31.0431 11.6721 30.4371 11.0827 31.2903 10.1279H32.1742C38.029 11.8584 43.1614 14.5364 46.4041 23.3666V24.3375C46.1339 24.8256 45.4264 24.9642 45.1667 24.3375Z" fill="white"/>
<path d="M46.1389 26.1027H50.4698C51.5056 26.502 51.7308 27.7781 50.4698 28.0443H46.1389C45.5221 27.8355 45.3733 26.5908 46.1389 26.1027Z" fill="white"/>
<path d="M47.0228 31.0451C46.7525 30.1577 45.7559 29.8816 45.1667 31.0451C45.002 32.1494 44.8129 32.7375 44.1945 33.9577C44.0653 35.2801 45.442 35.2411 45.7854 34.5755C46.4806 33.2278 46.7195 32.4379 47.0228 31.0451Z" fill="white"/>
<path d="M37.8308 43.9309C38.3712 43.6646 38.3448 42.252 36.8585 42.607C25.5541 49.2186 13.0786 41.9614 10.9618 30.9569C10.8718 29.9807 9.01231 29.6247 9.28253 31.1334C13.6023 46.2574 27.6973 49.9212 37.8308 43.9309Z" fill="white"/>
<path d="M5.39361 26.1909H8.92899L9.63607 22.7488C10.2666 21.7726 10.7282 22.0389 11.4038 22.7488C9.69234 29.5379 13.2301 28.0872 5.39361 28.3091C4.49287 27.7766 4.35775 26.8121 5.39361 26.1909Z" fill="white"/>
<path d="M45.1667 24.3375C43.2301 17.6372 39.33 13.8464 32.4393 11.7165C31.0431 11.6721 30.4371 11.0827 31.2903 10.1279H32.1742C38.029 11.8584 43.1614 14.5364 46.4041 23.3666V24.3375C46.1339 24.8256 45.4264 24.9642 45.1667 24.3375Z" stroke="white" stroke-width="0.1"/>
<path d="M46.1389 26.1027H50.4698C51.5056 26.502 51.7308 27.7781 50.4698 28.0443H46.1389C45.5221 27.8355 45.3733 26.5908 46.1389 26.1027Z" stroke="white" stroke-width="0.1"/>
<path d="M47.0228 31.0451C46.7525 30.1577 45.7559 29.8816 45.1667 31.0451C45.002 32.1494 44.8129 32.7375 44.1945 33.9577C44.0653 35.2801 45.442 35.2411 45.7854 34.5755C46.4806 33.2278 46.7195 32.4379 47.0228 31.0451Z" stroke="white" stroke-width="0.1"/>
<path d="M37.8308 43.9309C38.3712 43.6646 38.3448 42.252 36.8585 42.607C25.5541 49.2186 13.0786 41.9614 10.9618 30.9569C10.8718 29.9807 9.01231 29.6247 9.28253 31.1334C13.6023 46.2574 27.6973 49.9212 37.8308 43.9309Z" stroke="white" stroke-width="0.1"/>
<path d="M5.39361 26.1909H8.92899L9.63607 22.7488C10.2666 21.7726 10.7282 22.0389 11.4038 22.7488C9.69234 29.5379 13.2301 28.0872 5.39361 28.3091C4.49287 27.7766 4.35775 26.8121 5.39361 26.1909Z" stroke="white" stroke-width="0.1"/>
<path d="M40.5266 28.1321C40.5266 35.0285 34.9277 40.6209 28.0189 40.6209C21.1101 40.6209 15.5112 35.0285 15.5112 28.1321C15.5112 21.2358 21.1101 15.6434 28.0189 15.6434C34.9277 15.6434 40.5266 21.2358 40.5266 28.1321Z" stroke="white" stroke-width="1.5"/>
<ellipse cx="27.8863" cy="10.4366" rx="1.10481" ry="1.10323" fill="white"/>
<ellipse cx="27.8863" cy="10.4366" rx="1.10481" ry="1.10323" fill="white"/>
<ellipse cx="18.7843" cy="12.9078" rx="1.10481" ry="1.10323" fill="white"/>
<ellipse cx="18.7843" cy="12.9078" rx="1.10481" ry="1.10323" fill="white"/>
<ellipse cx="12.4636" cy="16.3942" rx="2.65154" ry="2.64775" fill="white"/>
<ellipse cx="12.4636" cy="16.3942" rx="2.65154" ry="2.64775" fill="white"/>
<ellipse cx="43.0451" cy="40.6652" rx="2.65154" ry="2.64775" fill="white"/>
<ellipse cx="43.0451" cy="40.6652" rx="2.65154" ry="2.64775" fill="white"/>
</svg>
