<svg width="600" height="450" viewBox="0 0 600 450" fill="none" xmlns="http://www.w3.org/2000/svg">
<path opacity="0.5" d="M290.185 442.286C414.893 442.286 515.988 383.918 515.988 311.918C515.988 239.918 414.893 181.55 290.185 181.55C165.478 181.55 64.3821 239.918 64.3821 311.918C64.3821 383.918 165.478 442.286 290.185 442.286Z" fill="url(#paint0_radial_54_5)"/>
<path opacity="0.4" d="M260.916 236.815C260.074 236.085 258.74 235.687 257.702 235.857C254.185 236.433 246.105 238.659 241.314 247.158C235.694 257.13 242.683 264.814 244.154 266.266C242.01 268.859 240.327 270.534 239.63 271.199C237.446 269.788 235.136 268.269 232.725 266.65C228.817 264.048 224.685 261.165 220.358 258.092C219.288 257.317 218.204 256.531 217.107 255.736C216.558 255.338 216.006 254.938 215.451 254.535C214.905 254.128 214.356 253.718 213.804 253.306C212.7 252.482 211.584 251.649 210.456 250.808C209.377 249.979 208.287 249.142 207.189 248.299C208.392 247.29 210.734 245.271 213.607 242.543C216.036 242.841 228.996 243.968 234.901 235.031C239.905 227.458 235.917 221.673 233.779 219.381C233.154 218.711 232.021 218.274 231.048 218.329C227.753 218.516 220.011 219.687 214.062 226.294C207.043 234.089 212.015 241.023 213.035 242.283C210.229 244.946 207.937 246.923 206.725 247.942C204.584 246.307 202.486 244.613 200.337 242.909C199.189 242.011 198.096 241.082 196.968 240.16C195.85 239.234 194.711 238.309 193.594 237.37C189.958 234.275 186.318 231.118 182.808 227.908C183.423 227.526 184.45 226.879 185.785 226.006C187.247 225.049 189.083 223.815 191.134 222.374C193.154 222.751 205.346 224.649 212.199 217.076C217.936 210.737 215.001 205.426 213.315 203.289C212.822 202.664 211.821 202.214 210.902 202.204C207.789 202.17 200.373 202.734 193.883 208.17C186.392 214.445 189.769 220.682 190.65 222.04C186.801 224.747 183.729 226.7 182.397 227.529C181.772 226.955 181.141 226.382 180.526 225.804C174.675 220.365 169.168 214.82 164.176 209.356C165.092 208.93 167.783 207.616 171.186 205.389C171.942 204.894 172.742 204.338 173.557 203.752C175.499 204.021 185.454 205.035 190.33 198.348C194.481 192.657 191.585 188.191 190.004 186.413C189.542 185.894 188.677 185.544 187.92 185.571C185.354 185.663 179.3 186.439 174.448 191.38C168.869 197.063 172.166 202.293 173.029 203.457C168.684 206.576 165.015 208.398 163.815 208.961C161.726 206.664 159.72 204.382 157.835 202.131C156.524 200.571 155.269 199.027 154.065 197.502C154.081 197.484 154.101 197.467 154.103 197.442C154.11 197.34 153.981 197.226 153.816 197.184C153.397 196.651 152.984 196.12 152.578 195.592C153.047 194.881 155.098 191.763 157.584 187.849C159.631 187.909 168.947 187.762 171.724 180.34C174.119 173.94 170.272 169.603 168.341 167.924C167.777 167.433 166.881 167.165 166.184 167.278C163.819 167.66 158.384 169.144 155.143 174.841C151.363 181.484 155.96 186.624 156.983 187.644C154.745 191.166 152.865 194.037 152.181 195.076C148.263 189.943 144.978 185.081 142.333 180.708C141.848 179.916 141.373 179.14 140.909 178.382C140.448 177.624 140.079 176.881 139.675 176.157C139.568 175.959 139.467 175.775 139.361 175.58C140.317 175.003 143.733 172.387 140.69 165.83C138.004 160.041 133.56 156.916 131.628 155.771C131.058 155.433 130.33 155.336 129.873 155.538C128.31 156.227 125.204 158.409 127.204 164.474C129.556 171.605 137.34 175.004 138.862 175.609C138.961 175.798 139.055 175.976 139.155 176.168C139.546 176.894 139.902 177.64 140.35 178.401C140.801 179.162 141.262 179.941 141.733 180.736C144.585 185.61 148.224 191.098 152.641 196.9C150.168 196.304 144.055 194.837 137.034 193.201C136.129 192.172 131.408 187.414 119.496 184.782C109.224 182.513 103.765 183.6 101.773 184.233C101.185 184.42 101.034 184.91 101.407 185.414C102.684 187.137 106.674 191.174 117.46 194.18C129.953 197.661 135.818 194.356 136.981 193.567C144.4 195.295 150.815 196.838 152.995 197.364C154.237 198.985 155.536 200.629 156.9 202.292C159.181 205.084 161.634 207.924 164.221 210.785C162.598 210.924 158.101 211.271 151.91 211.462C150.655 210.567 143.879 206.167 131.596 205.896C121.12 205.665 116.761 208.141 115.296 209.312C114.863 209.657 114.985 210.247 115.588 210.733C117.651 212.395 123.385 216.06 134.714 217.009C147.843 218.108 151.394 213.02 152.026 211.864C158.392 211.67 162.994 211.31 164.569 211.175C169.105 216.169 174.061 221.223 179.293 226.191C180.431 227.283 181.59 228.368 182.761 229.448C181.286 229.666 176.814 230.307 170.613 231.027C168.945 230.071 160.558 225.729 147.517 226.835C136.309 227.786 132.342 231.221 131.1 232.776C130.733 233.235 131.022 233.918 131.795 234.421C134.439 236.144 141.531 239.805 153.84 239.603C168.367 239.364 170.592 232.698 170.885 231.423C177.261 230.683 181.816 230.025 183.175 229.824C186.147 232.554 189.197 235.246 192.246 237.896C193.354 238.847 194.484 239.784 195.594 240.722C196.714 241.656 197.799 242.598 198.939 243.507C201.199 245.335 203.402 247.156 205.662 248.904C205.942 249.124 206.217 249.338 206.496 249.557C205.465 249.93 202.543 250.944 197.911 252.242C195.896 251.312 185.448 246.978 171.395 249.927C159.385 252.447 156.006 257.114 155.082 259.158C154.809 259.762 155.318 260.558 156.306 261.078C159.687 262.856 168.486 266.454 181.913 264.711C197.964 262.628 198.334 254.051 198.282 252.622C202.991 251.303 205.94 250.275 206.946 249.911C207.631 250.447 208.319 250.987 208.996 251.517C210.117 252.37 211.228 253.216 212.326 254.052C212.875 254.47 213.422 254.886 213.965 255.3C214.518 255.709 215.067 256.115 215.613 256.519C216.706 257.327 217.785 258.124 218.85 258.912C223.159 262.034 227.278 264.963 231.177 267.61C233.8 269.407 236.303 271.08 238.656 272.626C237.67 273.026 234.647 274.214 229.994 275.727C228.323 274.968 216.397 269.954 200.723 273.723C187.761 276.841 184.345 282.138 183.456 284.445C183.194 285.126 183.795 286.003 184.904 286.558C188.698 288.459 198.512 292.255 213.067 289.97C230.15 287.288 230.366 277.995 230.236 276.148C235.112 274.568 238.239 273.331 239.159 272.956C243.559 275.838 247.409 278.254 250.462 280.127C252.856 281.595 254.764 282.731 256.079 283.5C257.386 284.269 258.12 284.68 258.12 284.68L259.581 283.344C259.581 283.344 258.898 282.969 257.597 282.219C256.299 281.475 254.402 280.367 252.015 278.932C248.837 277.02 244.783 274.523 240.133 271.526C240.818 270.875 242.529 269.178 244.713 266.536C246.954 266.633 261.769 266.826 266.022 255.317C269.549 245.767 263.798 239.312 260.916 236.815Z" fill="#0B0244"/>
<g opacity="0.7">
<path d="M230.895 271.063C230.895 271.063 222.283 290.068 195.744 290.372C175.411 290.605 166.924 281.895 164.067 277.808C163.232 276.614 163.342 275.009 164.334 273.942C167.697 270.327 177.129 262.361 196.297 260.356C221.315 257.738 230.895 271.063 230.895 271.063Z" fill="url(#paint1_linear_54_5)"/>
</g>
<g opacity="0.7">
<path d="M257.674 259.089C257.674 259.089 277.58 265.341 295.501 245.764C309.231 230.765 308.398 218.632 307.257 213.778C306.924 212.359 305.655 211.372 304.197 211.4C299.26 211.496 287.035 213.215 272.761 226.164C254.13 243.064 257.674 259.089 257.674 259.089Z" fill="url(#paint2_linear_54_5)"/>
</g>
<g opacity="0.7">
<path d="M242.385 211.523C242.385 211.523 258.863 219.266 276.657 204.444C290.29 193.088 290.994 182.499 290.578 178.168C290.456 176.902 289.475 175.899 288.212 175.753C283.932 175.256 273.16 175.307 259.297 184.827C241.203 197.251 242.385 211.523 242.385 211.523Z" fill="url(#paint3_linear_54_5)"/>
</g>
<g opacity="0.7">
<path d="M234.317 172.531C234.317 172.531 248.594 180.968 266.004 169.054C279.342 159.926 280.89 150.385 280.884 146.422C280.882 145.264 280.079 144.27 278.946 144.028C275.108 143.21 265.335 142.331 251.946 149.773C234.471 159.487 234.317 172.531 234.317 172.531Z" fill="url(#paint4_linear_54_5)"/>
</g>
<g opacity="0.7">
<path d="M230.628 137.29C230.628 137.29 243.134 143.602 257.14 132.586C267.871 124.147 268.642 116.018 268.415 112.678C268.349 111.702 267.616 110.909 266.647 110.769C263.366 110.294 255.08 110.101 244.212 117.122C230.027 126.287 230.628 137.29 230.628 137.29Z" fill="url(#paint5_linear_54_5)"/>
</g>
<g opacity="0.7">
<path d="M226.21 106.999C226.21 106.999 239.565 111.229 251.628 98.114C260.87 88.066 260.331 79.919 259.573 76.658C259.352 75.705 258.501 75.04 257.523 75.056C254.208 75.113 245.998 76.247 236.393 84.917C223.857 96.234 226.21 106.999 226.21 106.999Z" fill="url(#paint6_linear_54_5)"/>
</g>
<g opacity="0.7">
<path d="M214.098 224.356C214.098 224.356 205.743 241.293 181.726 240.781C163.325 240.389 155.906 232.258 153.442 228.476C152.722 227.371 152.869 225.923 153.799 224.987C156.949 221.816 165.717 214.89 183.117 213.644C205.827 212.017 214.098 224.356 214.098 224.356Z" fill="url(#paint7_linear_54_5)"/>
</g>
<g opacity="0.7">
<path d="M200.848 182.438C200.848 182.438 191.627 195.689 171.392 192.194C155.889 189.517 150.654 181.698 149.054 178.187C148.586 177.161 148.895 175.956 149.8 175.283C152.866 173.004 161.161 168.268 176.027 169.433C195.429 170.954 200.848 182.438 200.848 182.438Z" fill="url(#paint8_linear_54_5)"/>
</g>
<g opacity="0.7">
<path d="M196.656 145.305C196.656 145.305 186.899 155.65 169.724 149.973C156.566 145.623 153.022 138.13 152.085 134.864C151.811 133.909 152.237 132.9 153.113 132.431C156.081 130.845 163.924 127.798 176.723 130.747C193.43 134.596 196.656 145.305 196.656 145.305Z" fill="url(#paint9_linear_54_5)"/>
</g>
<g opacity="0.7">
<path d="M195.921 111.367C195.921 111.367 184.277 117.786 170.612 107.821C160.143 100.187 159.131 92.503 159.23 89.327C159.259 88.399 159.927 87.622 160.841 87.455C163.937 86.892 171.789 86.422 182.34 92.707C196.111 100.91 195.921 111.367 195.921 111.367Z" fill="url(#paint10_linear_54_5)"/>
</g>
<g opacity="0.7">
<path d="M215.625 82.441C215.625 82.441 207.298 74.647 211.799 60.855C215.247 50.288 221.246 47.424 223.863 46.661C224.628 46.438 225.439 46.777 225.817 47.478C227.098 49.853 229.566 56.134 227.24 66.409C224.205 79.82 215.625 82.441 215.625 82.441Z" fill="url(#paint11_linear_54_5)"/>
</g>
<path opacity="0.7" d="M180.596 276.133C180.595 275.932 180.755 275.768 180.958 275.768C213.45 275.6 240.302 268.928 244.536 267.821C243.122 264.677 241.649 261.284 240.145 257.657C237.888 252.305 235.634 246.429 233.331 240.188C232.777 238.62 232.216 237.03 231.648 235.42C231.364 234.615 231.079 233.806 230.792 232.991C230.521 232.171 230.249 231.346 229.975 230.517C229.427 228.859 228.874 227.183 228.315 225.491C227.992 224.444 227.664 223.38 227.338 222.321C223.381 223.204 200.848 227.89 168.562 227.791C168.361 227.791 168.198 227.627 168.199 227.427C168.2 227.225 168.365 227.062 168.563 227.064C200.623 227.162 223.035 222.534 227.123 221.624C226.99 221.192 226.859 220.769 226.726 220.335C225.627 216.877 224.669 213.313 223.648 209.722C223.121 207.931 222.693 206.101 222.215 204.275C221.753 202.445 221.264 200.612 220.817 198.761C219.619 193.613 218.461 188.392 217.438 183.13C213.165 183.135 186.221 183.016 160.644 179.461C160.445 179.433 160.306 179.25 160.334 179.051C160.361 178.852 160.546 178.713 160.744 178.741C185.992 182.25 212.587 182.405 217.293 182.403C216.894 180.322 216.514 178.236 216.168 176.143C214.525 166.607 213.309 156.998 212.557 147.589C208.139 147.25 185.95 145.273 164.349 138.43C164.157 138.369 164.052 138.165 164.112 137.974C164.173 137.782 164.377 137.676 164.568 137.737C185.941 144.506 207.89 146.496 212.505 146.855C212.088 141.469 211.818 136.149 211.714 130.952C211.646 127.856 211.639 124.807 211.681 121.809C206.865 118.72 181.525 102.534 169.37 96.102C169.192 96.009 169.125 95.788 169.219 95.611C169.311 95.433 169.532 95.364 169.71 95.46C181.6 101.751 206.054 117.34 211.694 120.953C211.881 110.232 212.727 100.223 213.951 91.427C214.143 89.991 214.332 88.584 214.516 87.209C214.704 85.835 214.992 84.509 215.216 83.207C215.691 80.609 216.141 78.144 216.565 75.828C217.1 73.535 217.6 71.389 218.063 69.405C218.546 67.426 218.918 65.591 219.381 63.965C221.266 57.474 222.342 53.765 222.342 53.765L222.581 53.84C222.581 53.84 221.557 57.558 219.764 64.064C219.325 65.692 218.978 67.53 218.523 69.511C218.088 71.497 217.619 73.644 217.117 75.938C216.726 78.254 216.311 80.718 215.873 83.316C215.668 84.617 215.399 85.942 215.23 87.314C215.065 88.687 214.897 90.092 214.725 91.526C213.734 99.438 213.061 108.32 212.909 117.808C217.26 114.175 239.421 95.613 251.607 84.296C251.755 84.161 251.984 84.168 252.121 84.315C252.258 84.462 252.249 84.693 252.102 84.829C239.353 96.669 215.708 116.421 212.898 118.764C212.886 119.741 212.88 120.724 212.879 121.713C213.044 121.823 213.091 122.044 212.984 122.212C212.957 122.253 212.916 122.276 212.878 122.302C212.882 125.13 212.932 128.002 213.036 130.915C213.178 135.116 213.438 139.399 213.788 143.726C217.802 142.467 238.403 135.48 259.043 118.902C259.202 118.772 259.428 118.8 259.554 118.957C259.68 119.114 259.655 119.343 259.499 119.468C247.364 129.215 235.237 135.664 226.451 139.593C220.039 142.46 215.408 143.985 213.851 144.468C214.71 154.767 216.131 165.329 218.083 175.798C218.282 176.909 218.506 178.015 218.721 179.122C224.414 176.697 247.437 166.621 268.777 153.473C268.943 153.367 269.172 153.421 269.278 153.592C269.383 153.763 269.33 153.987 269.159 154.093C252.093 164.607 233.955 173.16 224.425 177.421C221.911 178.545 220 179.369 218.862 179.853C220.084 186.046 221.522 192.181 223.012 198.214C223.482 200.048 223.992 201.863 224.476 203.675C224.977 205.483 225.426 207.295 225.974 209.068C226.978 212.425 227.929 215.753 228.991 218.994C235.615 215.302 258.175 202.333 278.846 185.824C279.003 185.696 279.232 185.725 279.357 185.882C279.482 186.038 279.456 186.268 279.299 186.393C258.455 203.039 235.697 216.094 229.218 219.7C229.758 221.37 230.294 223.028 230.825 224.669C231.403 226.342 231.976 227.999 232.543 229.639C232.826 230.459 233.108 231.274 233.388 232.084C233.684 232.889 233.979 233.689 234.272 234.484C234.858 236.074 235.437 237.645 236.008 239.195C238.38 245.361 240.697 251.162 243.009 256.441C244.422 259.722 245.808 262.811 247.142 265.69C251.435 263.049 273.416 248.95 296.556 223.63C296.692 223.485 296.922 223.471 297.07 223.607C297.218 223.742 297.228 223.973 297.093 224.121C273.788 249.621 251.627 263.789 247.451 266.354C250.3 272.471 252.897 277.612 254.977 281.567C256.54 284.536 257.815 286.841 258.7 288.395C259.583 289.959 260.065 290.749 260.065 290.749L256.942 292.611C256.942 292.611 256.432 291.747 255.559 290.15C254.677 288.551 253.416 286.196 251.876 283.171C249.913 279.311 247.491 274.355 244.84 268.489C240.985 269.503 213.856 276.321 180.963 276.491C180.76 276.496 180.596 276.334 180.596 276.133Z" fill="url(#paint12_linear_54_5)"/>
<path opacity="0.7" d="M387.433 186.927C387.434 186.903 387.434 186.879 387.435 186.855C388.995 133.432 373.084 117.503 358.551 129.96C352.115 135.477 349.746 144.328 351.894 152.527C352.598 155.212 353.011 158.018 352.626 161.121C352.135 165.076 350.111 167.638 347.517 169.287C341.983 172.804 338.215 178.52 337.438 185.031C337.016 188.569 336.678 192.249 336.433 196.067C332.344 259.706 315.959 298.136 311.37 313.407C309.956 318.113 315.338 321.901 319.288 318.977C330.012 311.036 358.639 286.98 375.204 245.979C377.53 240.222 377.192 233.781 374.597 228.14C373.596 225.964 373.105 223.2 373.409 219.689C374.105 211.647 378.439 205.267 383.022 199.246C385.726 195.692 387.301 191.393 387.433 186.927Z" fill="url(#paint13_linear_54_5)"/>
<path opacity="0.7" d="M362.222 191.733L387.53 181.625C387.531 181.479 387.534 181.33 387.535 181.185L362.278 191.273C364.039 176.443 365.188 160.699 365.718 144.131L381.934 139.67C381.884 139.541 381.832 139.417 381.781 139.29L365.731 143.705C365.912 137.939 366.015 132.069 366.046 126.107C365.91 126.13 365.773 126.161 365.636 126.189C365.54 143.14 364.838 158.651 363.674 172.808L352.075 163.561C352.029 163.698 351.98 163.834 351.93 163.967L363.632 173.296C362.076 191.999 359.719 208.344 356.906 222.563L335.939 202.858C335.925 203.031 335.911 203.204 335.897 203.377L356.812 223.033C352.031 247.036 345.96 264.956 340.285 277.924C339.947 278.697 339.608 279.453 339.27 280.199L326.935 261.454C326.892 261.637 326.849 261.817 326.807 262L339.072 280.638C327.656 305.636 316.068 316.135 312.877 318.702C312.981 318.793 313.089 318.881 313.2 318.964C315.523 317.083 321.845 311.366 329.316 299.631L340.575 299.826C340.612 299.786 340.649 299.748 340.686 299.708C340.759 299.63 340.833 299.552 340.906 299.473C340.921 299.457 340.936 299.441 340.95 299.425L329.57 299.228C333.111 293.621 336.9 286.669 340.636 278.138C344.589 269.112 348.103 259.203 351.165 248.495L375.57 245.047C375.628 244.902 375.686 244.757 375.743 244.611L351.29 248.066C354.43 237.018 357.088 225.121 359.239 212.448C360.376 205.762 361.369 198.852 362.222 191.733Z" fill="url(#paint14_linear_54_5)"/>
<path opacity="0.4" d="M471.409 285.019C476.555 275.038 478.142 267.615 477.197 262.576C477.188 262.533 477.179 262.49 477.171 262.446H477.167C476.061 256.857 471.808 254.25 465.865 254.366C465.867 254.363 465.868 254.359 465.87 254.356C465.736 254.359 465.599 254.365 465.462 254.37L465.461 254.373C463.122 254.466 460.537 254.963 457.784 255.863C450.252 258.325 445.66 262.839 445.496 267.329C445.442 268.799 445.083 270.313 443.893 271.927C443.529 272.42 443.101 272.862 442.625 273.262C442.587 273.294 442.548 273.327 442.509 273.358C441.012 274.574 439.039 275.374 436.903 275.884C430.754 277.352 425.68 280.109 423.213 283.498C421.872 285.34 420.572 287.262 419.322 289.265C398.497 322.641 372.817 341.809 364.422 349.562C363.248 350.647 363.451 351.727 364.436 352.469C364.434 352.47 364.431 352.471 364.429 352.471C364.503 352.527 364.581 352.58 364.664 352.632C364.664 352.632 364.667 352.631 364.669 352.631C365.909 353.407 368.09 353.719 370.393 353.071C375.626 351.597 384.747 348.788 395.543 344.45H395.547C395.593 344.432 395.638 344.414 395.683 344.395C395.773 344.359 395.863 344.323 395.953 344.286C395.971 344.279 395.989 344.271 396.007 344.264H396.005C410.321 338.479 427.511 330.021 442.516 318.42C442.715 318.266 442.904 318.11 443.089 317.953H443.112C443.205 317.88 443.298 317.808 443.391 317.735H443.34C446.441 315.005 447.569 311.861 446.703 308.94C446.341 307.718 446.616 306.221 447.838 304.385C450.638 300.18 456.421 297.112 462.343 294.252C465.839 292.563 468.469 290.401 469.784 288.048C469.791 288.035 469.798 288.023 469.805 288.01C470.334 287.063 470.827 286.141 471.297 285.235C471.335 285.162 471.374 285.089 471.412 285.017L471.409 285.019Z" fill="#0B0244"/>
<path opacity="0.7" d="M463.947 194.174C463.952 194.143 463.957 194.113 463.962 194.082C474.76 125.729 456.948 102.651 436.233 116.257C427.059 122.283 422.559 133.26 423.969 144.144C424.431 147.708 424.5 151.38 423.494 155.301C422.212 160.299 419.191 163.257 415.588 164.947C407.902 168.552 402.121 175.274 400.052 183.507C398.928 187.981 397.888 192.651 396.944 197.515C381.216 278.572 353.846 325.231 345.438 344.088C342.847 349.899 349.136 355.65 354.69 352.545C369.771 344.113 410.495 317.93 438.52 267.999C442.455 260.988 443.082 252.66 440.678 244.989C439.75 242.029 439.575 238.399 440.543 233.94C442.761 223.726 449.377 216.246 456.254 209.268C460.312 205.149 463.043 199.887 463.947 194.174Z" fill="url(#paint15_linear_54_5)"/>
<path opacity="0.7" d="M430.778 196.196L464.945 187.38C464.971 187.193 464.999 187.002 465.024 186.815L430.926 195.613C435.63 176.856 439.696 156.826 443.105 135.636L464.666 132.576C464.623 132.402 464.576 132.234 464.532 132.062L443.192 135.09C444.374 127.714 445.472 120.192 446.494 112.541C446.315 112.548 446.135 112.565 445.954 112.579C443.04 134.334 439.585 154.139 435.759 172.129L422.385 158.344C422.303 158.513 422.219 158.679 422.132 158.841L435.625 172.749C430.548 196.513 424.829 217.117 418.876 234.915L395.192 206.156C395.146 206.377 395.099 206.596 395.052 206.816L418.677 235.504C408.586 265.543 397.838 287.559 388.414 303.279C387.853 304.216 387.293 305.131 386.735 306.034L373.979 279.929C373.894 280.157 373.809 280.382 373.724 280.609L386.407 306.565C367.63 336.79 351.019 348.367 346.499 351.137C346.618 351.272 346.742 351.401 346.871 351.526C350.164 349.492 359.224 343.191 370.752 329.35L385.18 331.454C385.234 331.409 385.288 331.365 385.343 331.321C385.45 331.233 385.557 331.144 385.665 331.055C385.686 331.037 385.708 331.019 385.73 331.001L371.147 328.875C376.618 322.257 382.628 313.952 388.831 303.61C395.394 292.668 401.539 280.521 407.234 267.274L439.144 266.863C439.242 266.686 439.341 266.51 439.438 266.332L407.464 266.744C413.316 253.073 418.688 238.231 423.537 222.309C426.098 213.908 428.511 205.198 430.778 196.196Z" fill="url(#paint16_linear_54_5)"/>
<path d="M276.556 403.633C274.77 403.633 273.063 403.273 271.79 402.537L135.295 323.731C134.004 322.986 133.294 321.939 133.293 320.784C133.293 319.413 134.3 318.046 136.055 317.032L271.026 239.107C274.248 237.249 279.15 237.051 281.953 238.668L418.448 317.474C419.739 318.218 420.449 319.265 420.45 320.421C420.45 321.791 419.443 323.159 417.688 324.172L282.719 402.097C280.96 403.113 278.701 403.633 276.556 403.633ZM272.127 401.953C274.745 403.463 279.343 403.266 282.381 401.513L417.351 323.588C418.891 322.698 419.775 321.544 419.775 320.421C419.775 319.516 419.184 318.677 418.111 318.058L281.616 239.252C278.998 237.741 274.399 237.937 271.363 239.69L136.393 317.615C134.852 318.506 133.968 319.66 133.968 320.783C133.968 321.687 134.559 322.526 135.632 323.146L272.127 401.953Z" fill="#42E8E0"/>
<path d="M420.112 308.803L411.878 308.807L281.784 233.697C279.069 232.13 274.328 232.326 271.193 234.136L141.63 308.94L133.632 308.944V315.512H133.637C133.634 316.51 134.23 317.464 135.463 318.176L271.958 396.982C274.673 398.549 279.414 398.353 282.549 396.543L417.519 318.618C419.277 317.603 420.155 316.296 420.11 315.068H420.113V308.803H420.112Z" fill="url(#paint17_linear_54_5)"/>
<path d="M271.958 390.445L135.463 311.64C132.748 310.073 133.089 307.335 136.223 305.525L271.193 227.6C274.328 225.79 279.069 225.594 281.784 227.161L418.279 305.966C420.994 307.533 420.653 310.271 417.519 312.081L282.549 390.006C279.415 391.816 274.673 392.013 271.958 390.445Z" fill="url(#paint18_linear_54_5)"/>
<path opacity="0.1" d="M272.298 384.806L145.231 311.444C142.704 309.985 143.021 307.436 145.939 305.752L271.586 233.21C274.504 231.525 278.918 231.342 281.445 232.801L408.512 306.163C411.039 307.622 410.722 310.17 407.804 311.855L282.157 384.398C279.239 386.082 274.825 386.265 272.298 384.806Z" fill="#180D5B"/>
<path d="M417.519 311.326L282.549 389.251C279.414 391.061 274.673 391.257 271.958 389.69L135.463 310.885C134.385 310.263 133.797 309.455 133.666 308.595C133.49 309.729 134.074 310.838 135.463 311.64L271.958 390.445C274.673 392.012 279.414 391.816 282.549 390.006L417.519 312.081C419.409 310.99 420.276 309.562 420.077 308.256C419.909 309.338 419.05 310.443 417.519 311.326Z" fill="white"/>
<path opacity="0.1" d="M278.262 312.517H407.99L410.676 301.577L281.785 227.161C279.07 225.594 274.329 225.79 271.194 227.6L197.331 270.245L262.054 308.123C266.971 311 272.565 312.517 278.262 312.517Z" fill="#180D5B"/>
<path d="M272.253 116.082L275.352 114.299L275.353 114.317C275.769 114.101 276.295 114.119 276.876 114.455L409.888 191.377C411.218 192.146 412.295 194.207 412.294 195.981L412.148 308.712C412.147 309.69 411.812 310.361 411.295 310.652L411.31 310.66L408.218 312.44L407.999 301.25L283.904 229.484C282.574 228.715 281.497 226.654 281.498 224.88L281.638 121.37C281.431 122.022 281.273 122.498 281.25 122.513C281.174 122.564 272.253 116.082 272.253 116.082Z" fill="url(#paint19_linear_54_5)"/>
<path d="M412.231 195.24L392.666 202.854L388.63 200.52L410.317 191.683C411.268 192.462 412.022 193.868 412.231 195.24Z" fill="url(#paint20_linear_54_5)"/>
<path d="M273.693 235.356L406.705 312.278C408.035 313.047 409.114 312.232 409.115 310.459L409.261 197.728C409.262 195.954 408.185 193.893 406.855 193.124L273.843 116.202C272.513 115.433 271.434 116.248 271.433 118.021L271.287 230.752C271.286 232.525 272.363 234.587 273.693 235.356Z" fill="url(#paint21_linear_54_5)"/>
<path d="M406.855 193.123L273.843 116.201C273.052 115.743 272.356 115.857 271.916 116.389C272.289 116.289 272.728 116.354 273.202 116.628L406.214 193.55C407.544 194.319 408.621 196.381 408.62 198.154L408.474 310.885C408.473 311.604 408.29 312.155 407.99 312.517C408.663 312.337 409.114 311.6 409.115 310.459L409.261 197.728C409.262 195.954 408.185 193.892 406.855 193.123Z" fill="white"/>
<path d="M273.298 232.916L407.05 310.266L407.218 197.269L273.466 119.919L273.298 232.916Z" fill="#24126A"/>
<path d="M334.362 232.524C333.639 232.524 332.845 232.287 332.029 231.815L320.14 224.951C317.375 223.354 315.126 219.459 315.126 216.266V212.823C315.126 209.845 313.028 206.212 310.449 204.722L298.892 198.05C297.706 197.364 296.61 197.244 295.803 197.71C294.996 198.176 294.552 199.186 294.552 200.555V222.505C294.552 224.125 293.988 225.343 292.964 225.934C291.941 226.525 290.604 226.406 289.201 225.595L275.582 217.732L275.919 217.148L289.538 225.011C290.723 225.695 291.82 225.817 292.627 225.35C293.434 224.884 293.878 223.875 293.878 222.505V200.555C293.878 198.935 294.442 197.717 295.466 197.126C296.489 196.534 297.826 196.655 299.229 197.466L310.786 204.138C313.551 205.735 315.8 209.63 315.8 212.823V216.266C315.8 219.244 317.898 222.877 320.477 224.367L332.366 231.231C333.552 231.915 334.649 232.035 335.455 231.571C336.262 231.105 336.706 230.094 336.706 228.725V203.762C336.706 202.142 337.27 200.924 338.294 200.333C339.317 199.741 340.654 199.862 342.057 200.673L355.28 208.307C356.466 208.992 357.562 209.111 358.369 208.647C359.176 208.181 359.62 207.17 359.62 205.801V192.89C359.62 191.27 360.184 190.052 361.207 189.46C362.231 188.869 363.568 188.989 364.971 189.8L378.731 197.744C381.496 199.341 383.745 203.236 383.745 206.429C383.745 209.407 385.843 213.04 388.422 214.53L403.599 223.293L403.262 223.877L388.085 215.114C385.32 213.517 383.071 209.622 383.071 206.429C383.071 203.451 380.972 199.818 378.394 198.328L364.634 190.384C363.448 189.7 362.352 189.58 361.545 190.044C360.738 190.51 360.294 191.521 360.294 192.89V205.801C360.294 207.421 359.731 208.639 358.707 209.231C357.683 209.822 356.346 209.702 354.943 208.891L341.72 201.257C340.534 200.571 339.437 200.451 338.631 200.917C337.824 201.383 337.38 202.393 337.38 203.762V228.725C337.38 230.345 336.816 231.563 335.793 232.155C335.365 232.402 334.882 232.524 334.362 232.524Z" fill="url(#paint22_linear_54_5)"/>
<path d="M295.515 296.288C295.515 296.288 294.8 298.435 294.865 298.95C294.93 299.466 296.406 301.497 296.508 301.559C296.61 301.621 297.861 303.216 299.263 303.981C300.667 304.747 300.774 305.127 300.905 305.144C301.035 305.161 301.244 305.026 301.244 305.026C301.244 305.026 301.452 303.558 300.835 302.846C300.219 302.135 301.14 301.078 301.14 301.078L299.549 296.929L295.515 296.288Z" fill="#FCD1C5"/>
<path d="M310.766 342.19C310.766 342.19 308.276 342.77 305.873 342.852C303.468 342.934 296.912 344.174 297.038 346.523C297.165 348.882 300.523 352.268 304.781 352.778C309.039 353.288 314.54 352.122 317.32 352.202C320.098 352.282 322.057 349.556 321.026 346.934C320 344.324 310.766 342.19 310.766 342.19Z" fill="#160A5B"/>
<path d="M325.285 335.928C325.285 335.928 326.165 337.355 325.698 338.224C325.231 339.094 323.988 341.257 320.137 339.143C316.297 337.035 308.837 334.004 308.837 334.004C308.837 334.004 304.559 331.762 304.84 329.137C305.12 326.526 309.094 326.937 309.094 326.937L325.285 335.928Z" fill="#160A5B"/>
<path d="M282.414 241.629C282.414 241.629 279.874 241.662 278.754 241.156C277.635 240.65 274.382 239.583 274.18 239.476C273.978 239.369 272.186 239.251 271.365 238.724C271.365 238.724 270.449 239.172 271.172 239.913C271.897 240.655 273.266 240.897 273.266 240.897L274.555 241.648C274.555 241.648 271.945 242.987 271.71 243.087C271.474 243.187 269.289 244.85 269.068 244.952C268.847 245.054 267.873 245.814 268.25 246.487C268.25 246.487 268.288 246.64 268.775 246.744C268.775 246.744 267.379 247.378 267.723 248.065C268.068 248.753 268.953 248.455 268.953 248.455C268.953 248.455 269.289 249.688 270.975 248.733C270.975 248.733 271.172 250.262 274.911 248.664C274.911 248.664 276.422 248.266 277.528 248.343C278.634 248.42 281.644 247.642 283.258 246.506C284.866 245.374 282.414 241.629 282.414 241.629Z" fill="#FCD1C5"/>
<path d="M277.527 248.344C278.633 248.421 281.643 247.643 283.257 246.507C284.341 245.744 283.581 243.797 282.971 242.607C282.209 242.237 281.538 241.934 281.538 241.934C281.538 241.934 281.651 245.64 281.568 246.196C281.484 246.753 278.137 247.414 275.991 247.729C273.843 248.044 271.026 248.876 271.024 248.876C271.19 249.214 271.908 249.948 274.911 248.665C274.911 248.665 276.422 248.267 277.527 248.344Z" fill="#E2B1A6"/>
<path d="M311.844 234.43C311.844 234.43 306.556 235.356 304.756 235.93C303.01 236.487 287.854 239.486 282.304 240.844C281.954 240.93 281.682 241.214 281.599 241.576C281.532 241.866 281.489 242.212 281.56 242.499C281.716 243.126 282.248 249.402 285.327 248.376C286.251 248.068 288.968 247.501 291.14 247.214C293.309 246.928 302.574 246.216 302.574 246.216L318.245 237.247L311.844 234.43Z" fill="#4846A5"/>
<path d="M300.497 298.278C300.497 298.278 301.897 315.574 305.343 322.103C308.829 328.708 309.598 340.709 310.303 342.993C311.011 345.286 313.264 348.58 316.897 349.287C320.532 349.995 321.179 347.606 321.03 346.167C320.882 344.732 319.919 342.408 319.94 340.848C319.96 339.293 320.35 338.567 320.422 337.852C320.422 337.852 324.579 339.061 325.286 335.928C325.286 335.928 324.968 335.013 324.923 334.545C324.878 334.078 325.553 322.678 325.687 321.292C325.821 319.91 325.224 312.401 324.137 308.681C323.058 304.987 323.619 297.124 323.619 297.124L311.589 295.369L300.497 298.278Z" fill="#24126A"/>
<path d="M320.022 298.349C320.022 298.349 319.914 301.051 318.715 303.311C318.715 303.311 318.546 312.473 317.487 317.089C317.487 317.089 318.844 326.344 319.757 329.253C320.675 332.177 320.421 337.851 320.421 337.851C320.421 337.851 320.893 338.024 321.576 338.051C322.258 338.078 322.556 326.825 321.548 324.826C320.544 322.834 319.938 313.986 320.393 311.285C320.845 308.598 320.876 300.876 321.429 299.514C321.98 298.156 320.817 297.422 320.817 297.422L320.022 298.349Z" fill="#160A5B"/>
<path d="M311.043 234.574C311.043 234.574 307.427 237.082 307.53 241.508L310.189 240.983C310.189 240.983 309.49 236.073 311.043 234.574Z" fill="#160A5B"/>
<path d="M311.161 302.046C319.145 302.352 323.526 298.934 323.526 298.934C323.568 297.839 323.618 297.125 323.618 297.125L311.588 295.37L300.497 298.279C300.497 298.279 300.775 301.703 301.387 306.08C303.347 306.302 305.354 301.619 305.354 301.619L310.837 302.005C310.837 302.005 303.166 301.739 311.161 302.046Z" fill="#160A5B"/>
<path d="M302.04 298.55C302.04 298.55 319.297 305.621 327.977 292.558C328.225 292.185 328.346 291.727 328.341 291.265L328.307 288.187C328.303 287.796 328.369 287.408 328.502 287.047C328.79 286.267 328.87 285.417 328.733 284.587C328.162 281.129 326.612 271.693 326.257 269.065C325.823 265.856 327.842 253.003 330.887 247.443C333.895 241.95 326.79 229.311 326.79 229.311C326.79 229.311 325.035 226.343 321.443 227.289C321.443 227.289 324.795 229.72 322.879 232.191C320.952 234.676 315.323 236.593 315.323 236.593C315.323 236.593 304.884 241.756 301.238 248.169C301.238 248.169 299.969 251.505 299.796 255.738C299.622 260.008 299.941 270.226 299.739 271.638C299.537 273.054 298.842 282.711 298.892 283.161C298.942 283.615 302.04 298.55 302.04 298.55Z" fill="#453C9E"/>
<path d="M307.297 300.014C307.297 300.014 318.098 272.917 317.812 262.941C317.532 253.161 302.379 282.422 302.379 282.422L302.04 298.55C302.04 298.55 305.31 299.762 307.297 300.014Z" fill="#24126A"/>
<path d="M302.285 267.744C302.697 265.503 302.952 263.248 303.015 260.991C303.125 257.059 304.355 250.534 311.556 251.775C321.706 253.524 317.068 267.517 315.908 269.948C314.741 272.391 310.103 283.374 309.859 283.996C309.629 284.581 302.409 298.193 299.866 301.439C299.633 301.736 299.233 301.778 298.956 301.543C297.959 300.697 295.717 298.677 295.438 297.408C295.08 295.775 296.627 289.867 296.627 289.867C296.627 289.867 300.805 275.035 301.149 274.344C301.405 273.825 301.618 271.371 302.285 267.744Z" fill="#4846A5"/>
<path d="M311.213 234.898C311.213 234.898 310.433 233.044 308.555 232.823C306.677 232.601 305.617 232.064 305.44 231.368C305.263 230.672 305.267 229.833 304.828 228.792C304.39 227.753 304.046 225.209 304.054 225.148C304.062 225.087 302.635 224.632 302.576 224.002C302.516 223.373 303.296 221.14 303.218 220.965C303.14 220.79 302.391 219.398 302.512 218.327C302.633 217.258 302.798 215.708 303.393 214.402C303.987 213.1 308.137 205.165 318.491 209.496C328.912 213.855 320.738 222.508 321.655 228.212C321.655 228.212 322.56 229.422 320.812 231.423C319.055 233.432 314.092 233.791 311.213 234.898Z" fill="#FCD1C5"/>
<path d="M320.811 231.422C322.559 229.422 321.654 228.211 321.654 228.211C321.527 227.42 321.579 226.569 321.729 225.681L317.611 226.39C317.611 226.39 311.648 220.901 312.025 223.794C312.404 226.704 310.922 227.178 310.922 227.178L312.136 228.776C312.448 229.186 312.25 229.659 311.981 230.099C310.197 233.029 306.011 232.07 306.002 232.071C306.521 232.42 307.376 232.683 308.553 232.822C310.431 233.044 311.211 234.897 311.211 234.897C314.092 233.791 319.055 233.432 320.811 231.422Z" fill="#E2B1A6"/>
<path d="M302.991 211.353C302.991 211.353 302.226 213.48 303.392 214.402C304.56 215.325 305.616 216.195 305.616 216.195L305.565 218.901C305.558 219.291 305.664 219.675 305.87 220.004L307.315 222.311C307.594 222.756 307.739 223.275 307.733 223.805L307.721 224.908C307.717 225.232 307.952 225.507 308.267 225.547L308.656 225.597C308.999 225.641 309.312 225.394 309.355 225.044L309.544 223.516C309.544 223.516 310.343 222.298 312.026 223.795L313.546 224.449C313.97 224.632 314.3 224.986 314.453 225.43C314.859 226.614 315.732 228.951 316.409 229.348C317.325 229.884 320.946 228.1 321.443 227.291C321.938 226.484 323.264 221.049 324.071 218.457C324.874 215.879 324.576 209.443 316.854 207.646C309.145 205.852 304.099 209.04 302.991 211.353Z" fill="#AA8383"/>
<path d="M321.443 227.29C321.938 226.483 323.264 221.048 324.071 218.456C324.071 218.456 321.038 220.392 317.144 220.914C313.242 221.437 305.602 216.917 305.602 216.917L305.564 218.901C305.557 219.291 305.663 219.675 305.869 220.004L307.314 222.311C307.593 222.756 307.738 223.275 307.732 223.805L307.72 224.908C307.716 225.232 307.951 225.507 308.266 225.547L308.655 225.597C308.998 225.641 309.311 225.394 309.354 225.044L309.543 223.516C309.543 223.516 310.342 222.298 312.025 223.795L314.224 224.741C314.224 224.741 315.492 228.812 316.408 229.348C317.325 229.884 320.947 228.099 321.443 227.29Z" fill="#936D6D"/>
<path d="M321.59 227.551C321.59 227.551 324.548 229.443 322.998 232.026C321.439 234.624 310.486 239.102 309.937 239.781C309.937 239.781 309.579 235.871 311.044 234.573C311.044 234.573 319.4 233.097 320.736 231.003C322.065 228.92 321.59 227.551 321.59 227.551Z" fill="#F0F6FF"/>
<path d="M321.59 227.551C321.59 227.551 322.066 228.92 320.736 231.004C319.725 232.588 314.699 233.818 312.309 234.323C312.309 234.323 313.184 234.836 314.614 237.362C317.989 235.693 322.088 233.542 322.998 232.026C324.548 229.443 321.59 227.551 321.59 227.551Z" fill="#C4CCD6"/>
<path d="M315.98 254.057C318.627 262.581 311.322 275.615 310.239 279.416C309.147 283.25 298.176 300.852 298.174 300.856C298.469 301.125 298.741 301.362 298.954 301.542C299.231 301.777 299.632 301.735 299.864 301.438C302.408 298.192 309.628 284.579 309.857 283.995C310.102 283.373 314.74 272.39 315.906 269.947C316.838 267.998 320.013 258.573 315.98 254.057Z" fill="#24126A"/>
<path d="M323.435 235.927C323.435 235.927 318.545 238.603 316.165 239.809C313.778 241.018 311.169 242.634 311.169 242.634L310.28 241.725L309.151 244.075C309.151 244.075 305.399 246.229 303.63 248.044C301.854 249.866 300.499 252.257 300.303 252.803C300.303 252.803 305.037 246.857 308.722 245.122L309.713 244.645L310.303 242.78L311.183 243.735C311.183 243.735 321.927 237.543 323.435 235.927Z" fill="#24126A"/>
<path d="M245.012 236.5C245.012 236.5 246.833 236.811 247.501 236.47C248.168 236.13 249.91 235.9 251.927 236.621C253.947 237.342 253.779 237.233 254.576 237.311C255.373 237.389 256.668 237.471 257.089 237.738C257.51 238.005 258.31 238.512 257.569 239.57C256.826 240.63 254.052 239.633 253.601 239.55C253.15 239.467 252.654 240.267 252.879 240.986C253.104 241.706 257.287 246.281 257.943 246.736C258.6 247.192 261.426 249.081 261.548 249.827C261.67 250.574 261.513 250.68 261.513 250.68C261.513 250.68 262.337 251.426 262.046 252.117C261.754 252.809 260.471 251.749 260.234 251.908C260.234 251.908 260.443 252.677 260.13 252.818C259.817 252.959 257.982 252.247 257.762 252.026C257.762 252.026 257.549 252.617 256.502 252.006C255.456 251.395 251.444 249.115 250.973 248.685C250.503 248.255 248.924 246.794 248.274 246.404C247.624 246.014 246.503 244.684 245.944 244.161C245.385 243.639 242.896 242.378 241.944 242.195C240.992 242.011 245.012 236.5 245.012 236.5Z" fill="#FCD1C5"/>
<path d="M248.209 244.768C247.287 243.085 244.196 241.781 244.196 241.781C244.405 240.411 246.375 236.628 246.375 236.628C245.693 236.616 245.012 236.5 245.012 236.5C245.012 236.5 240.992 242.011 241.943 242.195C242.894 242.378 245.384 243.639 245.943 244.161C246.502 244.684 247.623 246.014 248.273 246.404C248.923 246.794 250.502 248.256 250.972 248.685C251.442 249.115 255.454 251.396 256.501 252.006C257.548 252.617 257.761 252.026 257.761 252.026C257.981 252.247 259.816 252.959 260.129 252.818C260.442 252.677 260.233 251.908 260.233 251.908C260.233 251.908 258.944 251.176 257.617 250.71C256.293 250.244 249.134 246.456 248.209 244.768Z" fill="#E2B1A6"/>
<path d="M242.009 230.433C242.009 230.433 242.403 232.489 242.26 234.162C242.117 235.841 238.753 233.646 238.879 233.356C239.005 233.066 240.475 230.538 240.475 230.538L242.009 230.433Z" fill="#FCD1C5"/>
<path d="M227.336 179.853C227.336 179.853 229.202 179.768 231.472 183.496C233.659 187.086 237.505 199.934 239.521 204.862C239.7 205.299 239.832 205.752 239.912 206.22C240.567 210.064 243.639 228.15 243.779 230.324C243.779 230.324 241.437 231.881 239.933 232.266L236.627 231.17L233.371 198.385L228.096 181.074L227.336 179.853Z" fill="#24126A"/>
<path d="M216.764 287.728C216.764 287.728 216.132 290.761 216.478 291.348C216.824 291.936 220.768 296.393 221.185 296.992C221.603 297.592 223.635 301.239 227.371 302.129C231.113 303.021 233.658 302.789 234.164 301.032C234.669 299.28 232.474 296.37 231.457 295.43C230.443 294.492 226.172 289.411 225.392 288.674C224.612 287.938 223.483 287.823 223.483 287.823L218.611 288.67L216.764 287.728Z" fill="#160A5B"/>
<path d="M231.881 278.653C231.881 278.653 235.609 280.098 237.558 280.589C239.509 281.081 244.157 284.553 244.106 286.297C244.055 288.047 241.766 289.254 239.441 289.081C237.116 288.908 234.355 287.425 233.905 287.03C233.455 286.636 231.861 285.764 229.958 285.171C228.056 284.578 224.991 284.287 224.485 283.273C223.98 282.26 223.906 280.167 223.906 280.167L231.881 278.653Z" fill="#160A5B"/>
<path d="M223.459 278.023C223.487 277.844 223.615 277.543 223.638 277.418C223.807 276.495 223.647 272.746 223.647 272.746L222.826 273.869C222.826 273.869 223.404 277.623 224.526 283.493C224.811 284.982 225.59 286.518 225.705 287.362C226.047 289.875 224.555 290.366 224.555 290.366C221.525 292.646 218.936 291.269 218.005 290.536C217.075 289.804 216.76 288.626 215.469 284.395C214.187 280.194 213.073 271.317 213.35 269.207C213.594 267.345 214.271 262.147 214.237 258.573C214.204 255.022 211.472 243.67 211.472 243.67L222.768 241.477L230.479 237.483L236.364 238.37C236.364 238.37 237.109 235.884 237.885 243.623C238.673 251.472 233.917 265.361 233.917 265.361C232.663 272.238 232.343 280.147 231.631 281.218C230.917 282.292 228.105 284.822 225.502 282.855C225.024 282.494 224.478 282.115 224.192 281.727L223.459 278.023Z" fill="#24126A"/>
<path d="M222.826 273.87C222.826 273.87 226.541 263.757 228.302 253.955C230.033 244.324 233.032 242.969 234.279 241.24C234.279 241.24 236.156 242.101 237.151 242.27C237.272 242.291 237.38 242.301 237.47 242.298C238.298 242.272 233.317 248.473 232.422 250.064C231.525 251.66 226.374 265.307 226.016 267.191C225.657 269.081 225.291 282.246 225.709 283C226.127 283.756 224.283 282.431 224.283 282.431C224.283 282.431 223.146 279.52 222.826 273.87Z" fill="#160A5B"/>
<path d="M232.468 237.784L230.481 237.484L222.77 241.478L211.474 243.671C211.474 243.671 214.205 255.022 214.239 258.574C214.273 262.148 213.596 267.347 213.352 269.208C213.077 271.299 214.189 280.195 215.471 284.396C216.03 286.23 216.407 287.49 216.73 288.39C217.239 290.78 219.046 291.163 219.046 291.163C219.046 291.163 214.617 277.445 215.006 269.421C215.389 261.51 216.524 254.926 216.32 253.396C216.32 253.396 229.184 249.441 231.595 241.138C231.969 239.842 232.254 238.734 232.468 237.784Z" fill="#160A5B"/>
<path d="M210.186 181.617C210.186 181.617 209.271 182.387 209.074 183.171C208.876 183.956 207.746 186.744 207.746 186.744C207.746 186.744 202.368 193.882 201.399 196.069C200.427 198.265 200.113 199.905 200.113 199.905L214.357 217.445C214.357 217.445 209.371 234.64 210.762 240.912C212.17 247.256 214.002 249.619 216.243 250.304C218.488 250.99 230.468 246.06 231.296 239.78C232.114 233.571 231.781 232.782 231.781 232.782C231.781 232.782 237.376 234.276 237.726 232.849C238.075 231.426 237.021 221.176 236.733 219.71C236.446 218.248 235.585 202.078 235.585 202.078C235.585 202.078 232.176 187.162 231.981 186.427C231.786 185.693 229.67 180.088 226.946 179.773C224.224 179.459 220.83 183.789 220.83 183.789L210.186 181.617Z" fill="#453C9E"/>
<path d="M210.825 181.077C210.825 181.077 210.262 181.454 210.143 182.075C210.023 182.696 209.558 183.924 210.571 185.206C211.587 186.491 219.789 193.184 223.11 198.813C226.467 204.502 230.619 210.845 230.969 212.159C230.969 212.159 232.482 203.155 231.114 199.01C229.757 194.898 225.408 186.521 224.489 185.898C223.571 185.276 217.928 184.742 217.928 184.742L210.825 181.077Z" fill="#F0F6FF"/>
<path d="M219.298 190.131C219.298 190.131 218.853 190.865 218.722 191.431C218.722 191.431 216.339 190.215 215.343 189.767L219 192.309C219 192.309 219.216 190.979 219.398 190.78C219.398 190.78 221.485 192.375 221.78 193.084C222.075 193.794 225.932 203.486 225.932 203.486L227.958 206.796L228.481 205.994L225.164 196.963C225.164 196.963 223.297 194.119 223.271 194.053C223.245 193.987 221.982 190.933 221.982 190.933L219.298 190.131Z" fill="#C4CCD6"/>
<path d="M219.298 190.131C219.298 190.131 220.512 187.864 222.86 187.951C222.86 187.951 223.535 190.749 223.724 191.885C223.724 191.885 222.209 192.537 221.598 192.008C220.989 191.48 219.298 190.131 219.298 190.131Z" fill="#160A5B"/>
<path d="M223.368 191.281C223.368 191.281 229.406 198.726 231.514 207.713L231.075 212.348L227.898 206.687C227.898 206.687 222.695 193.686 221.485 191.305C220.281 188.934 223.368 191.281 223.368 191.281Z" fill="#160A5B"/>
<path d="M213.364 221.144C212.96 222.734 212.484 224.711 212.038 226.831C212.042 226.836 220.978 238.5 229.701 243.251C230.55 242.164 231.135 240.997 231.296 239.779C231.729 236.497 231.839 234.733 231.848 233.797L221.702 226.104L213.364 221.144Z" fill="#24126A"/>
<path d="M212.757 204.007C212.757 204.007 215.34 207.532 216.029 207.851C216.718 208.17 222.305 217.968 223.437 219.814C224.573 221.666 227.583 224.26 227.583 224.26L224.737 224.537L213.6 209.603L212.757 204.007Z" fill="#24126A"/>
<path d="M214.337 207.115C213.217 204.294 211.461 201.817 209.201 199.926C206.631 197.776 203.262 195.679 201.477 197.566C198.341 200.882 199.675 207.126 204.035 212.972C208.443 218.882 215.39 227.296 217.031 228.711C218.606 230.069 232.081 240.206 239.807 243.995C240.382 244.277 241.053 244.061 241.396 243.496C242.462 241.737 244.67 238.069 245.46 236.561C245.621 236.254 245.524 235.864 245.24 235.681C242.417 233.867 228.315 224.8 224.14 221.984C223.502 221.553 222.98 220.96 222.619 220.257C221.398 217.876 218.261 212.015 215.499 209.023C215.007 208.49 214.63 207.856 214.359 207.171C214.351 207.152 214.344 207.134 214.337 207.115Z" fill="#4846A5"/>
<path d="M224.707 182.951L229.64 187.938L228.367 188.38L229.992 189.325C229.992 189.325 233.938 198.646 233.078 209.204C233.078 209.204 235.037 200.901 230.793 189.132L229.48 188.467L230.366 188.186L224.707 182.951Z" fill="#24126A"/>
<path d="M210.722 180.233C210.812 180.426 210.861 180.636 210.843 180.851C210.806 181.292 210.754 182.039 210.794 182.358C210.853 182.825 213.946 188.034 220.266 188.079C220.266 188.079 221.024 186.95 221.175 186.729C221.175 186.729 223.732 186.61 224.797 185.678C225.86 184.747 225.205 183.117 225.205 183.117L225.359 181.165C225.378 180.929 225.482 180.709 225.653 180.547C225.878 180.334 226.174 180.019 226.228 179.789C226.283 179.555 226.133 179.15 226.011 178.874C225.927 178.686 225.893 178.483 225.916 178.278C225.973 177.785 226.022 176.734 225.673 175.426C225.573 175.049 225.569 174.651 225.665 174.272C225.822 173.65 226.045 172.731 226.071 172.404C226.111 171.892 225.244 170.532 225.205 169.995C225.167 169.459 224.42 167.644 224.42 167.644C224.42 167.644 219.722 158.92 212.137 162.696C204.495 166.501 208.479 174.667 209.423 176.981C209.423 176.981 210.335 178.864 210.496 179.284C210.63 179.635 210.533 179.826 210.722 180.233Z" fill="#FCD1C5"/>
<path d="M225.091 168.563C225.157 169.181 224.923 169.788 224.457 170.2C223.539 171.012 221.707 172.346 219.29 172.667C217.588 172.893 216.658 172.979 216.153 173.006C215.813 173.025 215.542 173.3 215.523 173.645C215.488 174.279 215.425 175.243 215.335 175.892C215.299 176.152 215.223 176.404 215.11 176.642L214.571 177.785C214.437 178.069 214.145 178.241 213.838 178.218L213.713 178.208C213.37 178.182 213.095 177.918 213.049 177.572L213.042 177.523C212.923 176.629 212.399 175.829 211.599 175.452C211.195 175.262 210.736 175.177 210.279 175.364C208.971 175.902 209.514 177.172 209.514 177.172C209.514 177.172 207.927 175.266 207.211 172.729C206.499 170.204 206.664 165.637 209.966 163.249C213.252 160.872 217.545 159.909 221.208 162.485C224.235 164.614 224.943 167.18 225.091 168.563Z" fill="#AA8383"/>
<path d="M212.589 179.258C212.423 179.057 212.634 180.801 210.843 180.85C210.806 181.291 210.754 182.038 210.794 182.357C210.853 182.824 213.946 188.033 220.266 188.078C220.266 188.078 221.024 186.949 221.175 186.728C221.175 186.728 215.374 183.911 214.346 182.632C213.321 181.356 212.755 179.459 212.589 179.258Z" fill="#E2B1A6"/>
<path d="M222.86 187.951C222.86 187.951 224.58 188.148 225.384 188.577C225.384 188.577 225.612 187.685 225.153 186.721C225.153 186.721 225.668 187.135 225.662 189.189C225.662 189.189 223.137 188.369 222.947 188.315L222.86 187.951Z" fill="#C4CCD6"/>
<path d="M242.078 242.112C242.078 242.112 227.446 233.7 222.487 230.347C217.56 227.015 203.696 212.873 200.859 207.429C201.587 209.247 202.66 211.13 204.035 212.973C208.443 218.883 215.39 227.297 217.031 228.712C218.606 230.07 232.081 240.207 239.807 243.996C240.381 244.278 241.053 244.062 241.396 243.497C241.603 243.156 241.853 242.742 242.127 242.286C242.097 242.178 242.078 242.112 242.078 242.112Z" fill="#24126A"/>
<path d="M208.425 187.185L215.109 196.691L216.829 196.081L216.923 197.895C216.923 197.895 224.923 203.855 230.906 216.234C230.906 216.234 222.987 203.483 216.682 199.239L216.108 197.418L214.767 197.726L208.425 187.185Z" fill="#24126A"/>
<path d="M207.825 173.958C207.752 173.933 207.684 173.915 207.616 173.896C208.399 175.828 209.515 177.172 209.515 177.172C209.515 177.172 208.973 175.902 210.28 175.364C210.737 175.176 211.196 175.261 211.6 175.452C212.4 175.829 212.924 176.629 213.043 177.523L213.05 177.572C213.096 177.917 213.371 178.181 213.714 178.208L213.839 178.218C214.146 178.242 214.438 178.069 214.572 177.785L215.111 176.642C215.223 176.404 215.3 176.152 215.336 175.892C215.426 175.243 215.489 174.279 215.524 173.645C215.524 173.645 211.063 175.089 207.825 173.958Z" fill="#936D6D"/>
<path opacity="0.4" d="M287.809 161.685L284.527 159.791V166.106L287.809 168.001V161.685Z" fill="#42E8E0"/>
<path opacity="0.6" d="M293.669 176.616L290.387 174.722V169.489L293.669 171.384V176.616Z" fill="#42E8E0"/>
<path opacity="0.8" d="M299.529 170.136L296.247 168.241V172.872L299.529 174.767V170.136Z" fill="#42E8E0"/>
<path d="M305.389 168.828L302.107 166.933V176.256L305.389 178.15V168.828Z" fill="#42E8E0"/>
<path d="M311.249 168.121L307.967 166.227V179.639L311.249 181.534V168.121Z" fill="#42E8E0"/>
<path opacity="0.8" d="M317.109 175.594L313.827 173.7V183.022L317.109 184.917V175.594Z" fill="#42E8E0"/>
<path opacity="0.6" d="M322.969 176.572L319.687 174.677V186.406L322.969 188.3V176.572Z" fill="#42E8E0"/>
<path opacity="0.4" d="M328.829 174.903L325.547 173.008V189.789L328.829 191.683V174.903Z" fill="#42E8E0"/>
<path opacity="0.4" d="M385.873 272.917C386.658 273.371 387.294 273.102 387.294 272.317L387.31 238.705C387.31 237.92 386.675 236.917 385.89 236.463C385.105 236.01 384.469 236.278 384.469 237.063L384.453 270.675C384.453 271.46 385.088 272.464 385.873 272.917Z" fill="#42E8E0"/>
<path opacity="0.6" d="M380.799 269.985C381.584 270.438 382.22 270.17 382.22 269.385L382.231 247.413C382.231 246.628 381.596 245.625 380.811 245.171C380.027 244.718 379.39 244.986 379.39 245.771L379.379 267.743C379.379 268.528 380.015 269.532 380.799 269.985Z" fill="#42E8E0"/>
<path opacity="0.8" d="M375.726 267.053C376.511 267.506 377.147 267.238 377.147 266.453L377.161 237.015C377.161 236.23 376.526 235.226 375.741 234.773C374.957 234.32 374.32 234.588 374.32 235.373L374.306 264.811C374.306 265.595 374.942 266.599 375.726 267.053Z" fill="#42E8E0"/>
<path d="M370.653 264.12C371.438 264.573 372.074 264.305 372.074 263.52L372.083 245.24C372.083 244.455 371.448 243.452 370.663 242.998C369.879 242.545 369.242 242.813 369.242 243.598L369.233 261.878C369.233 262.663 369.868 263.667 370.653 264.12Z" fill="#42E8E0"/>
<path d="M365.58 261.188C366.365 261.642 367.001 261.373 367.001 260.588L367.011 240.542C367.011 239.757 366.376 238.754 365.591 238.3C364.806 237.847 364.17 238.115 364.17 238.9L364.16 258.946C364.159 259.731 364.795 260.735 365.58 261.188Z" fill="#42E8E0"/>
<path opacity="0.8" d="M360.506 258.256C361.291 258.709 361.927 258.441 361.927 257.656L361.933 244.358C361.933 243.573 361.298 242.57 360.513 242.116C359.728 241.662 359.092 241.931 359.092 242.716L359.085 256.014C359.086 256.798 359.722 257.802 360.506 258.256Z" fill="#42E8E0"/>
<path opacity="0.6" d="M355.433 255.323C356.217 255.776 356.854 255.508 356.854 254.723L356.862 238.53C356.862 237.745 356.227 236.742 355.442 236.288C354.657 235.835 354.021 236.103 354.021 236.888L354.013 253.081C354.013 253.866 354.648 254.87 355.433 255.323Z" fill="#42E8E0"/>
<path opacity="0.4" d="M350.36 252.391C351.145 252.844 351.781 252.576 351.781 251.791L351.784 245.873C351.784 245.088 351.149 244.085 350.364 243.631C349.579 243.178 348.943 243.446 348.943 244.231L348.94 250.149C348.939 250.934 349.575 251.938 350.36 252.391Z" fill="#42E8E0"/>
<defs>
<radialGradient id="paint0_radial_54_5" cx="0" cy="0" r="1" gradientUnits="userSpaceOnUse" gradientTransform="translate(290.185 311.918) rotate(149.999) scale(184.366 159.668)">
<stop stop-color="#42E8E0"/>
<stop offset="0.1539" stop-color="#33AEB9"/>
<stop offset="0.3113" stop-color="#267A95"/>
<stop offset="0.4663" stop-color="#1B5078"/>
<stop offset="0.6156" stop-color="#132E61"/>
<stop offset="0.7574" stop-color="#0D1651"/>
<stop offset="0.8889" stop-color="#090847"/>
<stop offset="1" stop-color="#080344"/>
</radialGradient>
<linearGradient id="paint1_linear_54_5" x1="223.327" y1="258.753" x2="171.814" y2="290.421" gradientUnits="userSpaceOnUse">
<stop stop-color="#42E8E0"/>
<stop offset="0.1507" stop-color="#43E3E0"/>
<stop offset="0.3285" stop-color="#45D5DF"/>
<stop offset="0.5199" stop-color="#49BDDD"/>
<stop offset="0.7209" stop-color="#4E9CDB"/>
<stop offset="0.9274" stop-color="#5472D8"/>
<stop offset="1" stop-color="#5761D7"/>
</linearGradient>
<linearGradient id="paint2_linear_54_5" x1="253.544" y1="245.242" x2="311.492" y2="227.96" gradientUnits="userSpaceOnUse">
<stop stop-color="#42E8E0"/>
<stop offset="0.1507" stop-color="#43E3E0"/>
<stop offset="0.3285" stop-color="#45D5DF"/>
<stop offset="0.5199" stop-color="#49BDDD"/>
<stop offset="0.7209" stop-color="#4E9CDB"/>
<stop offset="0.9274" stop-color="#5472D8"/>
<stop offset="1" stop-color="#5761D7"/>
</linearGradient>
<linearGradient id="paint3_linear_54_5" x1="240.441" y1="199.065" x2="292.574" y2="190.928" gradientUnits="userSpaceOnUse">
<stop stop-color="#42E8E0"/>
<stop offset="0.1507" stop-color="#43E3E0"/>
<stop offset="0.3285" stop-color="#45D5DF"/>
<stop offset="0.5199" stop-color="#49BDDD"/>
<stop offset="0.7209" stop-color="#4E9CDB"/>
<stop offset="0.9274" stop-color="#5472D8"/>
<stop offset="1" stop-color="#5761D7"/>
</linearGradient>
<linearGradient id="paint4_linear_54_5" x1="233.624" y1="161.067" x2="281.599" y2="158.164" gradientUnits="userSpaceOnUse">
<stop stop-color="#42E8E0"/>
<stop offset="0.1507" stop-color="#43E3E0"/>
<stop offset="0.3285" stop-color="#45D5DF"/>
<stop offset="0.5199" stop-color="#49BDDD"/>
<stop offset="0.7209" stop-color="#4E9CDB"/>
<stop offset="0.9274" stop-color="#5472D8"/>
<stop offset="1" stop-color="#5761D7"/>
</linearGradient>
<linearGradient id="paint5_linear_54_5" x1="229.401" y1="127.667" x2="269.675" y2="122.535" gradientUnits="userSpaceOnUse">
<stop stop-color="#42E8E0"/>
<stop offset="0.1507" stop-color="#43E3E0"/>
<stop offset="0.3285" stop-color="#45D5DF"/>
<stop offset="0.5199" stop-color="#49BDDD"/>
<stop offset="0.7209" stop-color="#4E9CDB"/>
<stop offset="0.9274" stop-color="#5472D8"/>
<stop offset="1" stop-color="#5761D7"/>
</linearGradient>
<linearGradient id="paint6_linear_54_5" x1="223.46" y1="97.6958" x2="262.394" y2="86.1862" gradientUnits="userSpaceOnUse">
<stop stop-color="#42E8E0"/>
<stop offset="0.1507" stop-color="#43E3E0"/>
<stop offset="0.3285" stop-color="#45D5DF"/>
<stop offset="0.5199" stop-color="#49BDDD"/>
<stop offset="0.7209" stop-color="#4E9CDB"/>
<stop offset="0.9274" stop-color="#5472D8"/>
<stop offset="1" stop-color="#5761D7"/>
</linearGradient>
<linearGradient id="paint7_linear_54_5" x1="207.617" y1="212.995" x2="160.076" y2="240.116" gradientUnits="userSpaceOnUse">
<stop stop-color="#42E8E0"/>
<stop offset="0.1507" stop-color="#43E3E0"/>
<stop offset="0.3285" stop-color="#45D5DF"/>
<stop offset="0.5199" stop-color="#49BDDD"/>
<stop offset="0.7209" stop-color="#4E9CDB"/>
<stop offset="0.9274" stop-color="#5472D8"/>
<stop offset="1" stop-color="#5761D7"/>
</linearGradient>
<linearGradient id="paint8_linear_54_5" x1="196.819" y1="172.009" x2="153.177" y2="188.871" gradientUnits="userSpaceOnUse">
<stop stop-color="#42E8E0"/>
<stop offset="0.1507" stop-color="#43E3E0"/>
<stop offset="0.3285" stop-color="#45D5DF"/>
<stop offset="0.5199" stop-color="#49BDDD"/>
<stop offset="0.7209" stop-color="#4E9CDB"/>
<stop offset="0.9274" stop-color="#5472D8"/>
<stop offset="1" stop-color="#5761D7"/>
</linearGradient>
<linearGradient id="paint9_linear_54_5" x1="194.503" y1="135.695" x2="154.288" y2="144.709" gradientUnits="userSpaceOnUse">
<stop stop-color="#42E8E0"/>
<stop offset="0.1507" stop-color="#43E3E0"/>
<stop offset="0.3285" stop-color="#45D5DF"/>
<stop offset="0.5199" stop-color="#49BDDD"/>
<stop offset="0.7209" stop-color="#4E9CDB"/>
<stop offset="0.9274" stop-color="#5472D8"/>
<stop offset="1" stop-color="#5761D7"/>
</linearGradient>
<linearGradient id="paint10_linear_54_5" x1="196.751" y1="102.196" x2="158.376" y2="98.7204" gradientUnits="userSpaceOnUse">
<stop stop-color="#42E8E0"/>
<stop offset="0.1507" stop-color="#43E3E0"/>
<stop offset="0.3285" stop-color="#45D5DF"/>
<stop offset="0.5199" stop-color="#49BDDD"/>
<stop offset="0.7209" stop-color="#4E9CDB"/>
<stop offset="0.9274" stop-color="#5472D8"/>
<stop offset="1" stop-color="#5761D7"/>
</linearGradient>
<linearGradient id="paint11_linear_54_5" x1="223.325" y1="80.6845" x2="215.974" y2="48.4579" gradientUnits="userSpaceOnUse">
<stop stop-color="#42E8E0"/>
<stop offset="0.1507" stop-color="#43E3E0"/>
<stop offset="0.3285" stop-color="#45D5DF"/>
<stop offset="0.5199" stop-color="#49BDDD"/>
<stop offset="0.7209" stop-color="#4E9CDB"/>
<stop offset="0.9274" stop-color="#5472D8"/>
<stop offset="1" stop-color="#5761D7"/>
</linearGradient>
<linearGradient id="paint12_linear_54_5" x1="305.498" y1="195.453" x2="153.056" y2="150.954" gradientUnits="userSpaceOnUse">
<stop stop-color="#42E8E0"/>
<stop offset="0.1507" stop-color="#43E3E0"/>
<stop offset="0.3285" stop-color="#45D5DF"/>
<stop offset="0.5199" stop-color="#49BDDD"/>
<stop offset="0.7209" stop-color="#4E9CDB"/>
<stop offset="0.9274" stop-color="#5472D8"/>
<stop offset="1" stop-color="#5761D7"/>
</linearGradient>
<linearGradient id="paint13_linear_54_5" x1="322.824" y1="220.571" x2="382.425" y2="227.976" gradientUnits="userSpaceOnUse">
<stop stop-color="#42E8E0"/>
<stop offset="0.1507" stop-color="#43E3E0"/>
<stop offset="0.3285" stop-color="#45D5DF"/>
<stop offset="0.5199" stop-color="#49BDDD"/>
<stop offset="0.7209" stop-color="#4E9CDB"/>
<stop offset="0.9274" stop-color="#5472D8"/>
<stop offset="1" stop-color="#5761D7"/>
</linearGradient>
<linearGradient id="paint14_linear_54_5" x1="325.05" y1="220.725" x2="381.796" y2="227.775" gradientUnits="userSpaceOnUse">
<stop stop-color="#42E8E0"/>
<stop offset="0.1507" stop-color="#43E3E0"/>
<stop offset="0.3285" stop-color="#45D5DF"/>
<stop offset="0.5199" stop-color="#49BDDD"/>
<stop offset="0.7209" stop-color="#4E9CDB"/>
<stop offset="0.9274" stop-color="#5472D8"/>
<stop offset="1" stop-color="#5761D7"/>
</linearGradient>
<linearGradient id="paint15_linear_54_5" x1="375.437" y1="226.746" x2="450.756" y2="246.069" gradientUnits="userSpaceOnUse">
<stop stop-color="#42E8E0"/>
<stop offset="0.1507" stop-color="#43E3E0"/>
<stop offset="0.3285" stop-color="#45D5DF"/>
<stop offset="0.5199" stop-color="#49BDDD"/>
<stop offset="0.7209" stop-color="#4E9CDB"/>
<stop offset="0.9274" stop-color="#5472D8"/>
<stop offset="1" stop-color="#5761D7"/>
</linearGradient>
<linearGradient id="paint16_linear_54_5" x1="378.27" y1="227.31" x2="449.981" y2="245.708" gradientUnits="userSpaceOnUse">
<stop stop-color="#42E8E0"/>
<stop offset="0.1507" stop-color="#43E3E0"/>
<stop offset="0.3285" stop-color="#45D5DF"/>
<stop offset="0.5199" stop-color="#49BDDD"/>
<stop offset="0.7209" stop-color="#4E9CDB"/>
<stop offset="0.9274" stop-color="#5472D8"/>
<stop offset="1" stop-color="#5761D7"/>
</linearGradient>
<linearGradient id="paint17_linear_54_5" x1="577.528" y1="533.816" x2="257.161" y2="298.349" gradientUnits="userSpaceOnUse">
<stop stop-color="#5761D7"/>
<stop offset="0.1779" stop-color="#5C66D9"/>
<stop offset="0.3876" stop-color="#6A73DF"/>
<stop offset="0.6134" stop-color="#8289E8"/>
<stop offset="0.849" stop-color="#A3A7F5"/>
<stop offset="1" stop-color="#BCBEFF"/>
</linearGradient>
<linearGradient id="paint18_linear_54_5" x1="-83.425" y1="308.803" x2="385.855" y2="308.803" gradientUnits="userSpaceOnUse">
<stop stop-color="#C0BFF6"/>
<stop offset="0.2938" stop-color="#C5C4F7"/>
<stop offset="0.6399" stop-color="#D3D2F9"/>
<stop offset="1" stop-color="#E9E9FD"/>
</linearGradient>
<linearGradient id="paint19_linear_54_5" x1="80.6976" y1="331.486" x2="386.57" y2="193.108" gradientUnits="userSpaceOnUse">
<stop stop-color="#C0BFF6"/>
<stop offset="0.2938" stop-color="#C5C4F7"/>
<stop offset="0.6399" stop-color="#D3D2F9"/>
<stop offset="1" stop-color="#E9E9FD"/>
</linearGradient>
<linearGradient id="paint20_linear_54_5" x1="400.427" y1="202.859" x2="400.435" y2="191.676" gradientUnits="userSpaceOnUse">
<stop stop-color="#C0BFF6"/>
<stop offset="0.2938" stop-color="#C5C4F7"/>
<stop offset="0.6399" stop-color="#D3D2F9"/>
<stop offset="1" stop-color="#E9E9FD"/>
</linearGradient>
<linearGradient id="paint21_linear_54_5" x1="340.233" y1="273.84" x2="391.909" y2="184.474" gradientUnits="userSpaceOnUse">
<stop stop-color="#C0BFF6"/>
<stop offset="0.2938" stop-color="#C5C4F7"/>
<stop offset="0.6399" stop-color="#D3D2F9"/>
<stop offset="1" stop-color="#E9E9FD"/>
</linearGradient>
<linearGradient id="paint22_linear_54_5" x1="292.803" y1="187.904" x2="391.224" y2="244.727" gradientUnits="userSpaceOnUse">
<stop stop-color="#080545"/>
<stop offset="0.0749" stop-color="#163D6B"/>
<stop offset="0.1539" stop-color="#23718E"/>
<stop offset="0.2318" stop-color="#2E9BAC"/>
<stop offset="0.3068" stop-color="#37BDC2"/>
<stop offset="0.3781" stop-color="#3DD5D3"/>
<stop offset="0.4442" stop-color="#41E3DD"/>
<stop offset="0.5" stop-color="#42E8E0"/>
<stop offset="0.5526" stop-color="#41E3DC"/>
<stop offset="0.6187" stop-color="#3DD3D2"/>
<stop offset="0.6919" stop-color="#36B9C0"/>
<stop offset="0.7704" stop-color="#2D96A8"/>
<stop offset="0.853" stop-color="#226889"/>
<stop offset="0.9377" stop-color="#143063"/>
<stop offset="1" stop-color="#080344"/>
</linearGradient>
</defs>
</svg>
