<svg width="800" height="450" viewBox="0 0 800 450" fill="none" xmlns="http://www.w3.org/2000/svg">
<rect width="800" height="450" fill="black"/>
<path d="M333.572 189.303C325.272 160.587 308.558 144.341 279.026 135.213C273.043 135.023 270.446 132.496 274.102 128.404H277.89C302.982 135.821 324.978 147.298 338.875 185.142V189.303C337.717 191.395 334.685 191.989 333.572 189.303Z" fill="white"/>
<path d="M337.739 196.868H356.3C360.739 198.579 361.704 204.048 356.3 205.189H337.739C335.095 204.294 334.458 198.96 337.739 196.868Z" fill="white"/>
<path d="M341.527 218.05C340.369 214.246 336.097 213.063 333.572 218.05C332.866 222.782 332.056 225.303 329.406 230.532C328.852 236.199 334.752 236.032 336.224 233.18C339.203 227.404 340.227 224.019 341.527 218.05Z" fill="white"/>
<path d="M302.133 273.274C304.449 272.133 304.335 266.079 297.966 267.601C249.518 295.936 196.052 264.834 186.98 217.671C186.594 213.488 178.625 211.962 179.783 218.428C198.296 283.245 258.704 298.947 302.133 273.274Z" fill="white"/>
<path d="M163.116 197.246H178.268L181.298 182.494C184 178.31 185.979 179.451 188.874 182.494C181.539 211.59 196.701 205.373 163.116 206.324C159.256 204.042 158.677 199.908 163.116 197.246Z" fill="white"/>
<path d="M333.572 189.303C325.272 160.587 308.558 144.341 279.026 135.213C273.043 135.023 270.446 132.496 274.102 128.404H277.89C302.982 135.821 324.978 147.298 338.875 185.142V189.303C337.717 191.395 334.685 191.989 333.572 189.303Z" stroke="white"/>
<path d="M337.739 196.868H356.3C360.739 198.579 361.704 204.048 356.3 205.189H337.739C335.095 204.294 334.458 198.96 337.739 196.868Z" stroke="white"/>
<path d="M341.527 218.05C340.369 214.246 336.097 213.063 333.572 218.05C332.866 222.782 332.056 225.303 329.406 230.532C328.852 236.199 334.752 236.032 336.224 233.18C339.203 227.404 340.227 224.019 341.527 218.05Z" stroke="white"/>
<path d="M302.133 273.274C304.449 272.133 304.335 266.079 297.966 267.601C249.518 295.936 196.052 264.834 186.98 217.671C186.594 213.488 178.625 211.962 179.783 218.428C198.296 283.245 258.704 298.947 302.133 273.274Z" stroke="white"/>
<path d="M163.116 197.246H178.268L181.298 182.494C184 178.31 185.979 179.451 188.874 182.494C181.539 211.59 196.701 205.373 163.116 206.324C159.256 204.042 158.677 199.908 163.116 197.246Z" stroke="white"/>
<path d="M311.905 205.567C311.905 234.135 288.712 257.305 260.087 257.305C231.461 257.305 208.268 234.135 208.268 205.567C208.268 177 231.461 153.83 260.087 153.83C288.712 153.83 311.905 177 311.905 205.567Z" stroke="white" stroke-width="10"/>
<ellipse cx="259.519" cy="129.728" rx="4.73489" ry="4.72813" fill="white"/>
<ellipse cx="259.519" cy="129.728" rx="4.73489" ry="4.72813" fill="white"/>
<ellipse cx="220.503" cy="140.319" rx="4.73489" ry="4.72813" fill="white"/>
<ellipse cx="220.503" cy="140.319" rx="4.73489" ry="4.72813" fill="white"/>
<ellipse cx="193.42" cy="155.26" rx="11.3637" ry="11.3475" fill="white"/>
<ellipse cx="193.42" cy="155.26" rx="11.3637" ry="11.3475" fill="white"/>
<ellipse cx="324.481" cy="259.279" rx="11.3637" ry="11.3475" fill="white"/>
<ellipse cx="324.481" cy="259.279" rx="11.3637" ry="11.3475" fill="white"/>
</svg>
